<svg width="21" height="28" viewBox="0 0 21 28" fill="none" xmlns="http://www.w3.org/2000/svg">
<path fill-rule="evenodd" clip-rule="evenodd" d="M11.0112 5.54273C8.37124 5.0094 6.19791 7.02273 5.87791 9.14273C5.49124 11.7961 7.26478 13.7694 9.42478 14.2094C12.0648 14.7294 14.1713 12.7827 14.5847 10.6227C15.078 7.98268 13.1312 5.95607 11.0112 5.54273ZM0.064369 11.0893C-0.388964 7.34268 1.63801 4.1827 3.45135 2.5827C5.53135 0.742704 8.81135 -0.603936 12.5847 0.276064C19.038 1.78273 22.4247 9.06268 19.1847 15.0893C18.6247 16.1293 12.8245 24.3027 11.8378 25.7427C11.5445 26.1694 10.918 27.2361 10.518 27.3961C9.74468 27.7294 9.26437 26.6627 8.93103 26.1961L3.9977 19.1027C2.02437 16.2227 0.491036 14.756 0.064369 11.0893Z" fill="white"/>
</svg>
