<svg width="15" height="15" viewBox="0 0 15 15" fill="none" xmlns="http://www.w3.org/2000/svg">
<path fill-rule="evenodd" clip-rule="evenodd" d="M5.11966 5.66608L5.1332 12.3194H3.05299L3.06654 5.63942C3.1732 5.62609 4.67987 5.63942 4.99987 5.63942L5.11966 5.66608ZM3.9332 2.33275C4.7332 2.31942 4.78633 2.61275 4.98633 2.70609C4.98633 2.71942 5.63977 3.42608 5.0931 4.21274C4.0931 5.66608 2.03966 3.89275 3.25299 2.67941C3.58633 2.34608 3.83987 2.37275 3.9332 2.33275ZM14.9863 2.69274C14.9863 2.05274 15.0931 1.17275 14.7598 0.772755C14.3998 0.332755 13.9465 0.399415 13.3999 0.399415H2.10664C0.986641 0.399415 0.986328 1.22608 0.986328 1.89274V13.1861C0.986328 14.2261 1.51966 14.3994 2.38633 14.3994H13.6801C14.6267 14.3994 14.9863 14.0661 14.9863 13.1061V2.69274ZM12.7863 7.25275C13.013 7.62608 12.9197 12.3061 12.9197 12.3194H10.84L10.8264 8.62607C10.8664 7.49274 10.053 7.06608 9.18633 7.41274C8.01299 7.87941 8.69331 11.0128 8.50664 12.3194H6.43997V5.65275H8.42643V6.55941C8.54643 6.55941 8.98664 5.27942 10.9066 5.51942C11.52 5.58608 12.0263 5.81274 12.3863 6.29274C12.5463 6.49274 12.813 7.06608 12.7863 7.25275Z" fill="white"/>
</svg>
