<svg width="236" height="14" viewBox="0 0 236 14" fill="none" xmlns="http://www.w3.org/2000/svg">
<path d="M4.9599 10.7067C7.7599 10.7067 9.94661 8.50666 9.94661 5.70666C9.94661 2.90666 7.82672 0.759978 4.98672 0.759978C2.16005 0.759978 0 2.95998 0 5.73332C0 8.50665 2.1599 10.7067 4.9599 10.7067ZM4.9599 10.08C2.50656 10.08 0.666667 8.15998 0.666667 5.73332C0.666667 3.30665 2.50672 1.39998 4.98672 1.39998C7.46672 1.39998 9.27995 3.25332 9.27995 5.70666C9.27995 8.15999 7.41323 10.08 4.9599 10.08ZM5.12005 8.63999C6.12005 8.63999 6.94667 8.18665 7.4 7.47998L6.6 6.91999C6.24 7.43999 5.70651 7.67998 5.10651 7.67998C4.02651 7.67998 3.21328 6.91998 3.21328 5.73332C3.21328 4.55998 4.02651 3.78665 5.10651 3.78665C5.70651 3.78665 6.24 4.02664 6.6 4.55998L7.4 3.97332C6.94667 3.27999 6.12005 2.83999 5.12005 2.83999C3.38672 2.83999 2.14661 4.02665 2.14661 5.73332C2.14661 7.43998 3.38672 8.63999 5.12005 8.63999ZM16.9599 9.43999L19.9732 6.53332C21.3198 5.25332 21.6 4.39999 21.6 3.43999C21.6 1.74666 20.2799 0.693312 18.2133 0.693312C16.6799 0.693312 15.3733 1.23999 14.6133 2.18665L15.5732 3.01331C16.1732 2.27998 17.0399 1.94665 18.0932 1.94665C19.4666 1.94665 20.1867 2.55999 20.1867 3.58665C20.1867 4.19999 19.9866 4.81332 18.9466 5.83999L14.9333 9.70666V10.6667H22.0266V9.43999H16.9599ZM27.1599 10.7733C29.4666 10.7733 31.1867 8.94665 31.1867 5.73332C31.1867 2.51998 29.4666 0.693312 27.1599 0.693312C24.8532 0.693312 23.1333 2.51998 23.1333 5.73332C23.1333 8.94665 24.8532 10.7733 27.1599 10.7733ZM27.1599 9.51999C25.6132 9.51999 24.5466 8.25332 24.5466 5.73332C24.5466 3.21332 25.6132 1.94665 27.1599 1.94665C28.6932 1.94665 29.7732 3.21332 29.7732 5.73332C29.7732 8.25332 28.6932 9.51999 27.1599 9.51999ZM31.9333 0.799985V2.02664H34.1466V10.6667H35.5466V0.799985H31.9333ZM40.9065 0.693312C38.9465 0.693312 37.4266 1.90665 37.4266 3.79998C37.4266 5.62665 38.8267 6.79998 40.7867 6.79998C42.0134 6.79998 43.0532 6.35998 43.6398 5.49331V5.85332C43.6398 8.31999 42.3599 9.57332 40.3599 9.57332C39.6532 9.57332 38.9867 9.43999 38.4667 9.10666L37.9333 10.2C38.56 10.6 39.4534 10.7733 40.3867 10.7733C43.1334 10.7733 45.0398 8.97331 45.0398 5.61331C45.0398 2.46665 43.5465 0.693312 40.9065 0.693312ZM41.0266 5.65332C39.6532 5.65332 38.7867 4.90665 38.7867 3.74665C38.7867 2.58665 39.6799 1.82664 40.9599 1.82664C42.4932 1.82664 43.3065 2.71998 43.3065 3.73332C43.3065 4.81332 42.3732 5.65332 41.0266 5.65332ZM50.9867 10.6667H55.1466C58.3199 10.6667 60.4664 8.66665 60.4664 5.73332C60.4664 2.81332 58.3199 0.799985 55.1466 0.799985H50.9867V10.6667ZM52.4 9.43999V2.02664H55.0664C57.4931 2.02664 59.0664 3.51998 59.0664 5.73332C59.0664 7.94665 57.4931 9.43999 55.0664 9.43999H52.4ZM63.72 4.45332V3.19998H62.4268V10.6667H63.7867V6.94665C63.7867 5.31998 64.6797 4.42664 66.1331 4.42664L66.4398 4.43999V3.13332C65.1332 3.13332 64.2001 3.58665 63.72 4.45332ZM68.7867 1.75998C69.32 1.75998 69.6935 1.37332 69.6935 0.866652C69.6935 0.386651 69.3067 -1.52588e-05 68.7867 -1.52588e-05C68.2667 -1.52588e-05 67.8664 0.399978 67.8664 0.893312C67.8664 1.38664 68.2667 1.75998 68.7867 1.75998ZM68.1065 10.6667H69.4664V3.19998H68.1065V10.6667ZM77.32 3.19998L74.7065 9.18665L72.1331 3.19998H70.7331L73.9997 10.6667H75.3732L78.6398 3.19998H77.32ZM86.4534 6.97332C86.4534 4.67999 84.9202 3.13332 82.7602 3.13332C80.6002 3.13332 79.0133 4.71998 79.0133 6.93332C79.0133 9.15998 80.6135 10.7466 83.0268 10.7466C84.2668 10.7466 85.2932 10.3333 85.9732 9.53332L85.2268 8.66665C84.6802 9.26665 83.9464 9.57332 83.0664 9.57332C81.5864 9.57332 80.5335 8.69332 80.3602 7.38665H86.4268C86.4401 7.25332 86.4534 7.09332 86.4534 6.97332ZM82.7602 4.26665C84.0668 4.26665 85.0135 5.15998 85.1601 6.41331H80.3602C80.5068 5.14665 81.4668 4.26665 82.7602 4.26665ZM92.9732 10.7733C95.9732 10.7733 98.1997 8.63998 98.1997 5.73332C98.1997 2.83998 95.9732 0.693312 92.9732 0.693312C89.9465 0.693312 87.72 2.85332 87.72 5.73332C87.72 8.62665 89.9465 10.7733 92.9732 10.7733ZM92.9732 9.51999C90.7598 9.51999 89.1331 7.91998 89.1331 5.73332C89.1331 3.54665 90.7598 1.94665 92.9732 1.94665C95.1598 1.94665 96.7867 3.54665 96.7867 5.73332C96.7867 7.91998 95.1598 9.51999 92.9732 9.51999ZM104.147 3.13332C102.96 3.13332 102 3.57332 101.453 4.33332V3.19998H100.16V10.6667H101.507V6.82664C101.507 5.19998 102.44 4.34665 103.88 4.34665C105.16 4.34665 105.893 5.05332 105.893 6.51999V10.6667H107.24V6.37332C107.24 4.17332 105.96 3.13332 104.147 3.13332ZM115.693 10.6667H117.093V2.02664H120.48V0.799985H112.32V2.02664H115.693V10.6667ZM127.787 6.97332C127.787 4.67999 126.253 3.13332 124.093 3.13332C121.933 3.13332 120.347 4.71998 120.347 6.93332C120.347 9.15998 121.96 10.7466 124.36 10.7466C125.6 10.7466 126.627 10.3333 127.307 9.53332L126.56 8.66665C126.013 9.26665 125.28 9.57332 124.4 9.57332C122.92 9.57332 121.867 8.69332 121.707 7.38665H127.76C127.773 7.25332 127.787 7.09332 127.787 6.97332ZM124.093 4.26665C125.413 4.26665 126.347 5.15998 126.493 6.41331H121.707C121.84 5.14665 122.8 4.26665 124.093 4.26665ZM132.92 10.7466C134.253 10.7466 135.36 10.1866 135.96 9.14665L134.933 8.49331C134.453 9.22664 133.72 9.57332 132.907 9.57332C131.44 9.57332 130.333 8.55998 130.333 6.93332C130.333 5.34665 131.44 4.31999 132.907 4.31999C133.72 4.31999 134.453 4.65332 134.933 5.38665L135.96 4.71999C135.36 3.67999 134.253 3.13332 132.92 3.13332C130.627 3.13332 128.973 4.70665 128.973 6.93332C128.973 9.15998 130.627 10.7466 132.92 10.7466ZM141.6 3.13332C140.453 3.13332 139.52 3.54665 138.96 4.25332V0.213315H137.613V10.6667H138.96V6.82664C138.96 5.19998 139.893 4.34665 141.32 4.34665C142.613 4.34665 143.347 5.05332 143.347 6.51999V10.6667H144.693V6.37332C144.693 4.17332 143.413 3.13332 141.6 3.13332ZM151.187 3.13332C150 3.13332 149.053 3.57332 148.493 4.33332V3.19998H147.2V10.6667H148.56V6.82664C148.56 5.19998 149.48 4.34665 150.92 4.34665C152.2 4.34665 152.933 5.05332 152.933 6.51999V10.6667H154.293V6.37332C154.293 4.17332 153.013 3.13332 151.187 3.13332ZM160.04 10.7466C162.28 10.7466 163.906 9.15998 163.906 6.93332C163.906 4.70665 162.28 3.13332 160.04 3.13332C157.8 3.13332 156.147 4.70665 156.147 6.93332C156.147 9.15998 157.8 10.7466 160.04 10.7466ZM160.04 9.57332C158.6 9.57332 157.52 8.53332 157.52 6.93332C157.52 5.34665 158.6 4.31999 160.04 4.31999C161.48 4.31999 162.547 5.34665 162.547 6.93332C162.547 8.53332 161.48 9.57332 160.04 9.57332ZM165.787 10.6667H167.133V0.213315H165.787V10.6667ZM172.92 10.7466C175.16 10.7466 176.787 9.15998 176.787 6.93332C176.787 4.70665 175.16 3.13332 172.92 3.13332C170.68 3.13332 169.027 4.70665 169.027 6.93332C169.027 9.15998 170.68 10.7466 172.92 10.7466ZM172.92 9.57332C171.48 9.57332 170.387 8.53332 170.387 6.93332C170.387 5.34665 171.48 4.31999 172.92 4.31999C174.347 4.31999 175.427 5.34665 175.427 6.93332C175.427 8.53332 174.347 9.57332 172.92 9.57332ZM184.52 3.19998V4.35998C183.893 3.54664 182.867 3.13332 181.76 3.13332C179.6 3.13332 177.973 4.58665 177.973 6.73332C177.973 8.89332 179.6 10.36 181.76 10.36C182.827 10.36 183.8 9.97332 184.453 9.19998V9.78665C184.453 11.48 183.653 12.3067 181.893 12.3067C180.787 12.3067 179.707 11.92 179.013 11.3333L178.36 12.3733C179.187 13.1067 180.56 13.48 181.933 13.48C184.466 13.48 185.8 12.2933 185.8 9.65332V3.19998H184.52ZM181.92 9.17332C180.413 9.17332 179.333 8.17332 179.333 6.73332C179.333 5.29332 180.413 4.31999 181.92 4.31999C183.413 4.31999 184.48 5.29332 184.48 6.73332C184.48 8.17332 183.413 9.17332 181.92 9.17332ZM189.053 1.75998C189.6 1.75998 189.973 1.37332 189.973 0.866652C189.973 0.386651 189.587 -1.52588e-05 189.053 -1.52588e-05C188.533 -1.52588e-05 188.147 0.399978 188.147 0.893312C188.147 1.38664 188.533 1.75998 189.053 1.75998ZM188.387 10.6667H189.733V3.19998H188.387V10.6667ZM199.066 6.97332C199.066 4.67999 197.52 3.13332 195.373 3.13332C193.213 3.13332 191.627 4.71998 191.627 6.93332C191.627 9.15998 193.227 10.7466 195.64 10.7466C196.88 10.7466 197.907 10.3333 198.587 9.53332L197.84 8.66665C197.293 9.26665 196.56 9.57332 195.68 9.57332C194.2 9.57332 193.146 8.69332 192.973 7.38665H199.04C199.053 7.25332 199.066 7.09332 199.066 6.97332ZM195.373 4.26665C196.68 4.26665 197.627 5.15998 197.76 6.41331H192.973C193.12 5.14665 194.08 4.26665 195.373 4.26665ZM203.08 10.7466C205.067 10.7466 206.307 9.89331 206.307 8.54665C206.307 5.63998 201.573 7.07999 201.573 5.31999C201.573 4.71999 202.146 4.27998 203.333 4.27998C204.066 4.27998 204.813 4.43998 205.493 4.87998L206.066 3.79998C205.413 3.38665 204.32 3.13332 203.347 3.13332C201.427 3.13332 200.227 4.02666 200.227 5.37332C200.227 8.34666 204.947 6.89332 204.947 8.57332C204.947 9.19999 204.426 9.58665 203.173 9.58665C202.2 9.58665 201.187 9.26665 200.56 8.81331L199.987 9.87998C200.613 10.3733 201.84 10.7466 203.08 10.7466ZM211.987 10.6667H213.387V0.799985H211.987V10.6667ZM220.133 3.13332C218.96 3.13332 218 3.57332 217.453 4.33332V3.19998H216.147V10.6667H217.507V6.82664C217.507 5.19998 218.44 4.34665 219.866 4.34665C221.16 4.34665 221.88 5.05332 221.88 6.51999V10.6667H223.24V6.37332C223.24 4.17332 221.96 3.13332 220.133 3.13332ZM229.04 10.7466C230.386 10.7466 231.493 10.1866 232.08 9.14665L231.053 8.49331C230.587 9.22664 229.853 9.57332 229.027 9.57332C227.56 9.57332 226.466 8.55998 226.466 6.93332C226.466 5.34665 227.56 4.31999 229.027 4.31999C229.853 4.31999 230.587 4.65332 231.053 5.38665L232.08 4.71999C231.493 3.67999 230.386 3.13332 229.04 3.13332C226.746 3.13332 225.093 4.70665 225.093 6.93332C225.093 9.15998 226.746 10.7466 229.04 10.7466ZM234.44 10.7466C234.947 10.7466 235.373 10.3467 235.373 9.77332C235.373 9.21332 234.947 8.82664 234.44 8.82664C233.92 8.82664 233.48 9.21332 233.48 9.77332C233.48 10.3467 233.92 10.7466 234.44 10.7466Z" fill="white"/>
</svg>
