<svg width="15" height="15" viewBox="0 0 15 15" fill="none" xmlns="http://www.w3.org/2000/svg">
<path fill-rule="evenodd" clip-rule="evenodd" d="M11.8263 2.25293C12.3597 2.25293 12.7998 2.69292 12.7998 3.22625C12.7998 3.77292 12.3597 4.21292 11.8263 4.21292C11.2797 4.21292 10.8399 3.77292 10.8399 3.22625C10.8399 2.69292 11.2797 2.25293 11.8263 2.25293ZM1.87999 4.99959C1.87999 0.43959 1.69291 1.26626 11.4529 1.26626C12.9596 1.26626 13.6399 1.91959 13.6399 3.39959V10.9063C13.6399 12.5596 12.853 13.1063 11.293 13.1063H4.10655C2.42655 13.1063 1.87999 12.3863 1.87999 10.7463V4.99959ZM14.6133 12.6529C15.0533 11.4129 14.7998 3.86626 14.6664 1.79959C14.3198 0.746258 13.5596 -0.000409126 10.9862 -0.000409126C9.06624 0.0129242 7.14634 0.0129213 5.22634 0.0129213C-0.0536565 -0.000411987 0.613322 1.98626 0.613322 6.90626C0.613322 10.9596 -0.280428 14.3729 4.58624 14.3596C6.01291 14.3596 11.8398 14.5596 12.9331 14.1463C13.8931 13.7729 14.3067 13.1729 14.6133 12.6529ZM7.18624 4.79959C10.4396 3.91959 11.3463 8.91959 8.35968 9.58626C5.18634 10.2796 3.91957 5.69292 7.18624 4.79959ZM6.74666 3.61292C1.89332 5.06625 4.17322 12.0929 8.77322 10.7729C13.4132 9.42626 11.5067 2.21292 6.74666 3.61292Z" fill="white"/>
</svg>
