<svg width="154" height="35" viewBox="0 0 154 35" fill="none" xmlns="http://www.w3.org/2000/svg">
<path fill-rule="evenodd" clip-rule="evenodd" d="M8 15.1867C8 17.4 6.21333 19.1867 4 19.1867C1.78667 19.1867 0 17.4 0 15.1867C0 12.9734 1.78667 11.1867 4 11.1867C6.21333 11.1867 8 12.9734 8 15.1867ZM15.3333 24.52C9.10667 24.52 4 19.4134 4 13.1867C4 6.96003 9.10667 1.85336 15.3333 1.85336C21.56 1.85336 26.6667 6.96003 26.6667 13.1867C26.6667 19.4134 21.56 24.52 15.3333 24.52ZM17.7599 26.7333C15.4132 26.52 13.6135 28.0666 12.6135 29.1333C11.5202 30.2933 10.5598 32.5867 10.7198 34.8134C12.0665 35.1067 14.7333 33.52 15.8 32.3333C16.6533 31.4133 18.2532 28.7466 17.7599 26.7333ZM47.6135 8.39998L47.6 1.62667C50.28 1.18667 52.0531 2.17331 52.0531 4.86664C52.0531 7.53331 50.3469 8.74664 47.6135 8.39998ZM46.1599 0.586692C46.1199 1.85336 46.0002 8.74667 46.2135 9.49333C50.2535 9.89333 53.5598 9.09331 53.5865 4.86664C53.6131 0.519976 50.1332 0.133359 46.1599 0.586692ZM57.9865 4.04008C60.3065 3.13341 60.9599 7.61336 59.0932 8.45336C56.7332 9.52003 55.8531 4.88008 57.9865 4.04008ZM57.5865 3.01339C53.7198 4.09339 54.9998 10.8534 59.4531 9.52003C63.1198 8.42669 62.1465 1.74672 57.5865 3.01339ZM65.0401 9.53331L66.3734 9.52003C66.6801 8.73336 66.88 7.94672 67.1333 7.14672C67.3467 6.53339 67.6135 5.14675 67.8135 4.70675C67.9869 5.01341 69.0801 8.90675 69.2401 9.50675L70.5333 9.52003L72.5734 2.99998H71.1734C70.7468 4.01331 70.0933 7.63998 69.8667 8.13331C69.7067 7.27998 69.44 6.33336 69.2 5.52003C68.32 2.64003 68.8401 2.98664 67.3068 2.99998L65.8 8.08005L64.7599 3.57341C64.5866 2.84008 64.7069 2.98669 63.1469 2.98669L65.0401 9.53331ZM75.7068 3.90675L75.6531 3.01339L74.3734 2.98669L74.4401 9.52003L75.8531 9.53331C76.0265 7.78664 75.1334 4.26669 77.1734 4.05336C79.2268 3.84003 78.5465 7.02672 78.6531 9.48005L80.0802 9.53331C80.1735 8.17331 80.2668 4.96 79.7068 3.96C79.3468 3.29333 78.7202 2.82664 77.6802 2.86664C76.3469 2.91998 76.1068 3.80008 75.7068 3.90675ZM82.6667 9.58669H84.0667V0.0133851H82.6401L82.6667 9.58669ZM88.9068 4.05336C91.2668 3.10669 91.8933 7.66669 90 8.45336C87.6 9.46669 86.8534 4.88003 88.9068 4.05336ZM89.3599 9.66664C90.1999 9.67998 90.9334 9.36003 91.4401 8.98669C93.4001 7.53336 92.9999 2.75998 89.3599 2.86664C85.1466 2.99998 85.3066 9.65331 89.3599 9.66664ZM98.1333 6.28005C98.1867 7.10672 98.2401 7.74667 97.7068 8.22667C96.3334 9.45333 94.9601 7.61333 96.1734 6.69333C96.6668 6.32 97.44 6.29339 98.1333 6.28005ZM95.8932 9.64008C97.1732 9.84008 97.5869 9.22675 98.2135 8.84008L98.3599 9.50675L99.6266 9.53331L99.5068 8.92003C99.3734 7.77336 99.7068 4.78667 99.1068 3.76C98.4268 2.6 95.8801 2.57336 94.7734 3.45336L95.0531 4.34672C95.6931 4.12005 96.2132 3.78669 97.0932 3.92003C97.7732 4.02669 98.2534 4.56008 98.0401 5.30675C92.9734 5.58675 93.7732 9.32008 95.8932 9.64008ZM104.24 4.14672C105.387 3.57339 106.293 4.50675 106.386 5.57341C106.493 6.86675 106.373 8.01336 105.373 8.38669C103.053 9.25336 102.28 5.13339 104.24 4.14672ZM106.267 3.46664C105.8 3.23998 105.386 2.85331 104.52 2.86664C103.786 2.87998 103.213 3.14664 102.773 3.53331C101.107 5.05331 101.32 8.77331 103.6 9.53331C105.227 10.08 105.92 9.15998 106.533 8.53331L106.614 9.48005L107.88 9.58669L107.827 0.0133851H106.4L106.347 3.69333L106.267 3.46664ZM115.414 6.70675C115.08 3.38675 118.48 2.92005 118.773 5.88005C119.093 9.05339 115.72 9.58675 115.414 6.70675ZM113.986 7.19998C114.4 8.14664 114.773 9.58664 116.907 9.66664C119.307 9.75998 119.747 8.05339 120.16 7.41339C120.547 4.98672 119.72 2.94664 117.32 2.86664C116.013 2.82664 115.307 3.29333 114.693 3.96C113.973 4.74667 113.853 5.89331 113.986 7.19998ZM123.627 3.08005L122.48 3.13331L122.507 9.49333H123.827C123.827 8.92 123.694 5.46667 123.947 5.29333C124.187 3.82667 126.12 3.54675 126.533 4.90675C126.84 5.88008 126.574 8.30669 126.68 9.52003L128.08 9.58669C128.187 8.20003 128.293 4.99998 127.707 3.93331C127.36 3.29331 126.706 2.81339 125.653 2.88005C124.56 2.93339 124.267 3.46667 123.733 3.96L123.627 3.08005ZM134.92 1.77341L134.853 3.01339L133.907 3.10675L133.893 4.05336L134.814 4.08005L134.853 7.16C134.853 8.02667 134.987 8.86667 135.467 9.29333C135.933 9.70667 137.147 9.82675 137.773 9.44008V8.39998C137.093 8.47998 136.493 8.57331 136.467 7.93331C136.12 7.45331 136.254 4.84005 136.28 4.08005L137.88 4.06664L137.867 3.06664L136.24 2.98669L136.214 1.38669L134.92 1.77341ZM139.907 9.58669L141.307 9.52003C141.413 8.46669 141.173 5.72003 141.427 4.98669C141.853 3.70669 143.907 3.61339 144.027 5.28005C144.32 5.70672 144.186 9.02675 144.186 9.50675H145.493C145.493 8.00008 145.44 6.44003 145.44 4.98669C145.507 3.64003 144.133 2.45336 142.493 2.98669C142 3.16003 141.84 3.46669 141.52 3.58669C141.386 3.89336 141.693 3.66669 141.333 3.85336L141.293 -2.64059e-05L139.88 0.0133851L139.907 9.58669ZM149.08 5.53331C149.28 3.41331 152 3.12008 152.08 5.57341L149.08 5.53331ZM147.733 7.19998C147.987 7.74664 147.947 8.05336 148.333 8.52003C149.493 9.93336 151.573 9.82675 153.093 9.24008L152.893 8.26664C151.96 8.45331 150.72 8.82667 149.8 8.16C149.493 7.94667 149.32 7.74675 149.293 7.37341C149.067 7.14675 149.094 6.98672 149.08 6.61339L153.427 6.59998C153.613 4.34664 152.64 2.53339 150.28 2.88005C148.094 3.21339 147.547 5.26664 147.733 7.19998Z" fill="#FCFCFC"/>
</svg>
