<svg width="35" height="35" viewBox="0 0 35 35" fill="none" xmlns="http://www.w3.org/2000/svg">
<path fill-rule="evenodd" clip-rule="evenodd" d="M16.1186 27.3228L15.892 27.0294L16.5983 27.9095L16.1186 27.3228ZM34.3717 0.469372C33.585 -0.263962 32.012 -0.0238838 31.1587 0.416119C30.7454 0.402782 25.1854 2.01604 24.492 2.26937L2.39827 8.44281C1.49161 8.70947 0.265252 9.09612 0.0519188 10.2828C-0.0147478 10.6294 -0.0149562 10.3894 0.0383772 10.7228C0.0250438 11.2294 0.131711 11.6028 0.638377 12.0428C0.705044 12.5628 10.452 22.0428 11.692 23.2828C13.5854 25.1761 15.4784 27.0694 17.3717 28.9627C19.105 30.6961 21.1854 33.0161 23.0254 34.5095C23.572 34.7361 23.7185 34.9361 24.2118 34.8561C25.3985 35.2561 26.1986 33.4561 26.4519 32.5095C26.7453 31.4295 27.0654 30.416 27.3587 29.336C27.9187 27.216 28.5318 25.1228 29.1451 22.9761L32.6785 10.3761C33.2785 8.68281 33.7185 6.69604 34.2118 4.93604C34.5851 3.6427 35.4917 1.50937 34.3717 0.469372Z" fill="#00F075"/>
</svg>
