<svg width="24" height="24" viewBox="0 0 24 24" fill="none" xmlns="http://www.w3.org/2000/svg">
<path fill-rule="evenodd" clip-rule="evenodd" d="M23.813 12.3461C23.813 5.93279 18.613 0.73278 12.1997 0.73278C5.78637 0.73278 0.586426 5.93279 0.586426 12.3461C0.586426 18.7595 5.78637 23.9595 12.1997 23.9595C18.613 23.9595 23.813 18.7595 23.813 12.3461ZM11.333 14.9461H14.0929C14.0929 12.3861 17.7997 12.0528 17.7997 8.51943C17.7997 6.0261 15.6663 4.57276 12.4797 4.57276C9.77299 4.57276 7.81304 5.57279 6.59971 7.21279L8.70648 8.5861C9.46648 7.51943 10.6398 6.90609 12.2398 6.90609C13.9198 6.90609 14.9596 7.73279 14.9596 8.94613C14.9596 11.1195 11.333 11.7328 11.333 14.9461ZM12.7198 20.1328C13.7198 20.1328 14.4398 19.3728 14.4398 18.4394C14.4398 17.5061 13.7198 16.7595 12.7198 16.7595C11.7064 16.7595 10.9864 17.5061 10.9864 18.4394C10.9864 19.3728 11.7064 20.1328 12.7198 20.1328ZM17.2664 4.22614C18.7997 5.17281 20.0929 6.62613 20.8929 8.34613C21.4663 9.58613 21.7731 10.9194 21.7731 12.4661C21.7731 15.8928 19.853 18.6794 17.613 20.2394C17.173 20.5461 16.6396 20.8528 16.0929 21.0928C9.70627 23.8928 2.62627 19.2395 2.62627 12.3461C2.62627 10.8395 2.94632 9.63947 3.47966 8.42614C4.87966 5.13281 8.47966 2.69275 12.1463 2.77275C14.1463 2.82609 15.693 3.25281 17.2664 4.22614Z" fill="white"/>
</svg>
