<svg width="18" height="15" viewBox="0 0 18 15" fill="none" xmlns="http://www.w3.org/2000/svg">
<path fill-rule="evenodd" clip-rule="evenodd" d="M1.6529 1.21276C0.692897 4.0261 1.8129 4.54609 2.6529 5.75943L1.27998 5.42609C1.19998 7.06609 2.37321 8.31943 3.63988 8.67943C3.30654 8.95943 2.78654 8.93276 2.57321 9.01276C3.11988 10.7728 4.39956 11.2128 5.58623 11.5061C4.27956 12.5861 2.71988 12.7594 0.706543 12.8661C5.81321 15.9861 12.2132 14.3061 14.9732 9.15943C16.5465 6.23943 15.8799 4.4661 16.3732 3.79943C16.7732 3.2661 17.373 3.1461 17.893 2.1861L16.1862 2.55943C16.6929 2.13276 17.1732 1.5861 17.4399 0.812762C16.4799 1.09276 15.7062 1.83944 14.8529 1.23944C14.0529 0.652772 13.3329 0.319426 12.0529 0.492759C9.71956 0.812759 9.05331 2.63943 9.07998 4.73277C4.35998 4.89277 2.4929 2.0261 1.6529 1.21276Z" fill="white"/>
</svg>
