<svg width="17" height="13" viewBox="0 0 17 13" fill="none" xmlns="http://www.w3.org/2000/svg">
<path fill-rule="evenodd" clip-rule="evenodd" d="M6.67986 3.87954C7.26653 4.0262 10.3328 5.61287 10.7194 6.13287C10.2128 6.53287 7.34632 8.10621 6.66632 8.25288L6.67986 3.87954ZM0.399652 8.35953C0.612985 11.0795 0.86611 11.7729 3.65278 11.9462C5.83944 12.0662 8.15944 12.0795 10.3861 12.0395C15.5994 11.9595 16.5729 12.4395 16.1595 4.21287C16.0262 1.5062 15.6529 0.679538 12.9595 0.546205C10.6795 0.439538 8.34653 0.439538 6.07986 0.479538C3.50653 0.519538 1.38632 0.239541 0.732985 2.06621C0.239652 3.43954 0.279652 6.73287 0.399652 8.35953Z" fill="white"/>
</svg>
